#tb 0: 1/1
#media_type 0: video
#codec_id 0: fits
#dimensions 0: 72x36
#sar 0: 0/1
0,          0,          0,        1,     5760, 0xca17f406
0,          1,          1,        1,     5760, 0x710f524b
0,          2,          2,        1,     5760, 0xef5909b1
0,          3,          3,        1,     5760, 0x1eea9780
0,          4,          4,        1,     5760, 0x405f3732
